<?xml version="1.0" encoding="utf-8"?>
<!-- Generator: Adobe Illustrator 26.1.0, SVG Export Plug-In . SVG Version: 6.00 Build 0)  -->
<svg version="1.1" id="Layer_1" xmlns="http://www.w3.org/2000/svg" xmlns:xlink="http://www.w3.org/1999/xlink" x="0px" y="0px"
	 viewBox="0 0 888.79 1281.36" style="enable-background:new 0 0 888.79 1281.36;" xml:space="preserve">
<style type="text/css">
	.st0{display:none;opacity:0.25;}
	.st1{fill:#DCDBC4;}
	.st2{fill:none;stroke:#DCDBC4;stroke-width:20;stroke-miterlimit:10;}
</style>
<g>
	<path class="st1" d="M424.42,455.51c44.07,0,79.93-37.43,79.93-83.43c0-46.01-35.85-83.44-79.93-83.44
		c-44.07,0-79.93,37.43-79.93,83.44C344.5,418.08,380.35,455.51,424.42,455.51z M424.42,309.19c11.66,0,22.52,3.63,31.7,9.8
		c-9.41,6.31-20.35,9.71-31.7,9.71c-11.39,0-22.27-3.42-31.67-9.73C401.93,312.81,412.77,309.19,424.42,309.19z M377.69,333.42
		c13.53,10.23,29.69,15.83,46.74,15.83c16.97,0,33.19-5.61,46.73-15.84c7.89,10.68,12.65,24.08,12.65,38.67
		c0,34.67-26.63,62.88-59.38,62.88s-59.38-28.21-59.38-62.88C365.05,357.5,369.8,344.1,377.69,333.42z"/>
	<rect x="530.29" y="362.07" class="st1" width="97.83" height="20"/>
	<rect x="298.11" y="496.13" transform="matrix(0.5 -0.866 0.866 0.5 -264.8035 553.5952)" class="st1" width="97.83" height="20"/>
	<rect x="491.82" y="457.21" transform="matrix(0.866 -0.5 0.5 0.866 -185.8318 318.7152)" class="st1" width="20" height="97.83"/>
	<rect x="452.9" y="228.02" transform="matrix(0.5 -0.866 0.866 0.5 44.7719 553.5959)" class="st1" width="97.83" height="20"/>
	<path class="st1" d="M579.21,183.8c44.02,0,79.82-35.81,79.82-79.82s-35.81-79.82-79.82-79.82c-44.02,0-79.82,35.81-79.82,79.82
		S535.2,183.8,579.21,183.8z M579.21,44.15c32.99,0,59.82,26.84,59.82,59.82s-26.84,59.82-59.82,59.82s-59.82-26.84-59.82-59.82
		S546.22,44.15,579.21,44.15z"/>
	<path class="st1" d="M734,451.9c44.02,0,79.82-35.81,79.82-79.82s-35.81-79.82-79.82-79.82s-79.82,35.81-79.82,79.82
		S689.98,451.9,734,451.9z M734,312.25c32.99,0,59.82,26.84,59.82,59.82c0,32.99-26.84,59.82-59.82,59.82s-59.82-26.84-59.82-59.82
		C674.17,339.09,701.01,312.25,734,312.25z"/>
	<rect x="530.29" y="898.28" class="st1" width="97.83" height="20"/>
	<rect x="452.9" y="764.23" transform="matrix(0.5 -0.866 0.866 0.5 -419.5915 821.701)" class="st1" width="97.83" height="20"/>
	<path class="st1" d="M424.42,828.45c-44.02,0-79.82,35.81-79.82,79.82s35.81,79.82,79.82,79.82s79.82-35.81,79.82-79.82
		S468.44,828.45,424.42,828.45z M424.42,968.1c-32.99,0-59.82-26.84-59.82-59.82s26.84-59.82,59.82-59.82s59.82,26.84,59.82,59.82
		S457.41,968.1,424.42,968.1z"/>
	<rect x="839.87" y="898.28" class="st1" width="97.83" height="20"/>
	
		<rect x="607.69" y="1032.33" transform="matrix(0.5 -0.866 0.866 0.5 -574.3801 1089.7944)" class="st1" width="97.83" height="20"/>
	<rect x="646.6" y="725.31" transform="matrix(0.866 -0.5 0.5 0.866 -299.1444 432.0275)" class="st1" width="20" height="97.83"/>
	<rect x="801.39" y="993.41" transform="matrix(0.866 -0.5 0.5 0.866 -412.457 545.3398)" class="st1" width="20" height="97.83"/>
	<path class="st1" d="M813.82,908.28c0-44.02-35.81-79.82-79.82-79.82s-79.82,35.81-79.82,79.82S689.98,988.1,734,988.1
		S813.82,952.29,813.82,908.28z M734,968.1c-32.99,0-59.82-26.84-59.82-59.82s26.84-59.82,59.82-59.82s59.82,26.84,59.82,59.82
		S766.99,968.1,734,968.1z"/>
	<path class="st1" d="M579.21,1096.55c-44.02,0-79.82,35.81-79.82,79.82s35.81,79.82,79.82,79.82c44.02,0,79.82-35.81,79.82-79.82
		S623.23,1096.55,579.21,1096.55z M579.21,1236.2c-32.99,0-59.82-26.84-59.82-59.82s26.84-59.82,59.82-59.82
		s59.82,26.84,59.82,59.82S612.2,1236.2,579.21,1236.2z"/>
	<path class="st1" d="M888.79,1096.55c-44.02,0-79.82,35.81-79.82,79.82s35.81,79.82,79.82,79.82s79.82-35.81,79.82-79.82
		S932.8,1096.55,888.79,1096.55z M888.79,1236.2c-32.99,0-59.82-26.84-59.82-59.82s26.84-59.82,59.82-59.82s59.82,26.84,59.82,59.82
		S921.77,1236.2,888.79,1236.2z"/>
	<rect x="685.08" y="630.18" class="st1" width="97.83" height="20"/>
	<path class="st1" d="M499.39,640.18c0,44.02,35.81,79.82,79.82,79.82c44.02,0,79.82-35.81,79.82-79.82s-35.81-79.82-79.82-79.82
		C535.2,560.35,499.39,596.16,499.39,640.18z M639.04,640.18c0,32.99-26.84,59.82-59.82,59.82s-59.82-26.84-59.82-59.82
		c0-32.99,26.84-59.82,59.82-59.82S639.04,607.19,639.04,640.18z"/>
	<path class="st1" d="M888.79,720c44.02,0,79.82-35.81,79.82-79.82s-35.81-79.82-79.82-79.82s-79.82,35.81-79.82,79.82
		S844.77,720,888.79,720z M888.79,580.35c32.99,0,59.82,26.84,59.82,59.82c0,32.99-26.84,59.82-59.82,59.82
		s-59.82-26.84-59.82-59.82C828.96,607.19,855.8,580.35,888.79,580.35z"/>
	<path class="st1" d="M269.63,560.35c-44.02,0-79.82,35.81-79.82,79.82S225.62,720,269.63,720s79.82-35.81,79.82-79.82
		S313.65,560.35,269.63,560.35z M269.63,700c-32.99,0-59.82-26.84-59.82-59.82c0-32.99,26.84-59.82,59.82-59.82
		c32.99,0,59.82,26.84,59.82,59.82C329.46,673.16,302.62,700,269.63,700z"/>
</g>
<rect x="220.61" y="362.07" class="st1" width="97.83" height="20"/>
<path class="st1" d="M114.74,292.25c-44.02,0-79.82,35.81-79.82,79.82s35.81,79.82,79.82,79.82s79.82-35.81,79.82-79.82
	S158.76,292.25,114.74,292.25z M114.74,431.9c-32.99,0-59.82-26.84-59.82-59.82s26.84-59.82,59.82-59.82s59.82,26.84,59.82,59.82
	S147.73,431.9,114.74,431.9z"/>
</svg>
