<?xml version="1.0" encoding="utf-8"?>
<!-- Generator: Adobe Illustrator 26.1.0, SVG Export Plug-In . SVG Version: 6.00 Build 0)  -->
<svg version="1.1" id="Layer_1" xmlns="http://www.w3.org/2000/svg" xmlns:xlink="http://www.w3.org/1999/xlink" x="0px" y="0px"
	 viewBox="0 0 540.56 726.86" style="enable-background:new 0 0 540.56 726.86;" xml:space="preserve">
<style type="text/css">
	.st0{display:none;opacity:0.25;}
	.st1{fill:#DCDBC4;}
	.st2{fill:none;stroke:#DCDBC4;stroke-width:20;stroke-miterlimit:10;}
</style>
<g>
	<path class="st1" d="M216.15,362.07c0-47-38.23-85.23-85.23-85.23H-78.79v20H76.15c-18.6,15.65-30.46,39.08-30.46,65.23
		s11.85,49.58,30.46,65.23H-78.79v20h209.71C177.92,447.31,216.15,409.07,216.15,362.07z M130.92,427.31
		c-35.97,0-65.23-29.26-65.23-65.23s29.26-65.23,65.23-65.23s65.23,29.26,65.23,65.23S166.89,427.31,130.92,427.31z"/>
	<rect x="242.99" y="352.07" class="st1" width="97.83" height="20"/>
	<rect x="204.51" y="447.21" transform="matrix(0.866 -0.5 0.5 0.866 -219.323 173.7231)" class="st1" width="20" height="97.83"/>
	<rect x="165.59" y="218.02" transform="matrix(0.5 -0.866 0.866 0.5 -90.2194 299.7828)" class="st1" width="97.83" height="20"/>
	<path class="st1" d="M291.91,173.8c44.02,0,79.82-35.81,79.82-79.82s-35.81-79.82-79.82-79.82s-79.82,35.81-79.82,79.82
		S247.89,173.8,291.91,173.8z M291.91,34.15c32.99,0,59.82,26.84,59.82,59.82s-26.84,59.82-59.82,59.82s-59.82-26.84-59.82-59.82
		S258.92,34.15,291.91,34.15z"/>
	<path class="st1" d="M446.69,282.25c-44.02,0-79.82,35.81-79.82,79.82s35.81,79.82,79.82,79.82s79.82-35.81,79.82-79.82
		S490.71,282.25,446.69,282.25z M446.69,421.9c-32.99,0-59.82-26.84-59.82-59.82s26.84-59.82,59.82-59.82s59.82,26.84,59.82,59.82
		S479.68,421.9,446.69,421.9z"/>
	<path class="st1" d="M291.91,550.35c-44.02,0-79.82,35.81-79.82,79.82S247.89,710,291.91,710s79.82-35.81,79.82-79.82
		S335.92,550.35,291.91,550.35z M291.91,690c-32.99,0-59.82-26.84-59.82-59.82s26.84-59.82,59.82-59.82s59.82,26.84,59.82,59.82
		S324.89,690,291.91,690z"/>
</g>
</svg>
